<svg width="400" height="480" xmlns="http://www.w3.org/2000/svg">
  <path d="M378.5 254.5l-.1.8c-.3 1.8-1 3.6-1.6 5.4a281.4 281.4 0 01-3.7 10l-2.4 6c-1 2.4-1.9 4.8-2.6 7.3-.3 1.1-1.5 1.8-2.6 1.5a2.1 2.1 0 01-1.5-2.6c.7-2.5 1.6-5 2.6-7.3l2.5-6 1.4-3.7 1.1-3.1 1-3 .7-1.8a2 2 0 01-.2-1.6l.5-1.5c.2-.5.3-1 .6-1.4.3-.5.8-1 1.5-1a2.4 2.4 0 011.2 0c.4 0 .7.3 1 .5.3.4.7 1 .6 1.5zm-14.8-24.3l-.2.4-2.5 3-.7 1A1373.8 1373.8 0 00348 253a2 2 0 01-2.6.7 1.8 1.8 0 01-.7-2.5l4.8-7.7a394 394 0 017.4-11.3l1.6-2.3c.7-1 1.4-2 2.2-2.8l2.5-3c1.8-2 4-3.8 6-5.6.6-.3 1-.6 1.7-.6.6 0 1.2.2 1.6.6.4.5.7 1 .7 1.6 0 .5-.3 1.2-.7 1.6a50.6 50.6 0 00-6.2 5.6l-2.6 3zm-10.4 81.4a32.1 32.1 0 01-2.2 11l-2.3 6.8a4.4 4.4 0 01-8 1c-.6-1-.6-2.1-.4-3.3l1.5-6c.7-2.5 1.5-5 2-7.5v-3.4l-.3-3.3c-.1-1 .6-2.4 1.4-3.1a4.7 4.7 0 016.5 0c.6.5 1 1.2 1.2 2l.2 1.1c.2 1.6.4 3.2.4 4.7zm-16-82.3l-1.3 1.9-.9 1.3-1.7 3-1.6 2.8-1.1 2.2-2 3.6-1.8 3.8-3 6.1c-2.2 4.7-4.4 9.4-6.8 14.1-.3.6-1.1.7-1.7.4-.5-.3-.7-1-.4-1.6l3-6a320.6 320.6 0 006.2-12.7l1.7-3.4 1.3-2.6 2-4 2-3.4 1.9-3.2.8-1.3 1.4-2c.2-.4.6-.6 1-.6l.5.1c.5.3.8 1 .4 1.5zm-1.9 60l-1 4.5c-.7 3-1.8 5.8-2.3 8.9-.1.7-.8 1.5-1.4 1.8-.8.5-1.7.6-2.5.3-1.3-.3-2.4-1.6-2.3-3 .3-5.5 2.2-11 3-16.4a21.4 21.4 0 00-.3-7.9c-.2-.9-.2-1.8.3-2.6a3.5 3.5 0 013-1.7c.7 0 1.3.1 1.9.4.7.5 1.4 1.3 1.6 2.1.4 2.2.9 4.5.8 6.8a36 36 0 01-.8 6.8zM319 331.5c-.1 1.8-.3 3.6-.6 5.3l-1.4 6.7c-.5 2-3 3.3-5 2.7a4 4 0 01-2.3-1.8c-.4-.6-.6-1.2-.6-2l1-7c.2-1.8.4-3.5.3-5.2l-.2-.8-1.1-1.7c-1.3-1.9-.4-4.6 1.5-5.7a4.4 4.4 0 013.3-.4c1.1.3 1.9 1 2.5 1.9.9 1.2 1.7 2.4 2 3.8.4 1.4.6 2.8.6 4.2zm-18-99.8c-.3 1.3-1.7 2-3 1.7l-.9-.2-1 1c-.8 1.1-1.3 2.2-1.8 3.3-1 2.4-1.9 4.9-2.6 7.3l-.9 2.9-.9 3.9-1 5.6-1.4 6.7c0 .7-.6 1.3-1.2 1.6-.6.3-1.3.4-2 .2-.7-.1-1.3-.6-1.6-1.1-.4-.7-.4-1.3-.3-2 1-5.3 2-10.5 3.2-15.7l1-3.4 1.2-3.6.9-2.2c.6-1.6 1.3-3.3 2.1-4.8 1-1.4 2-2.8 3.5-3.7a5 5 0 012.6-1h.1l2.3.4c1.3.4 2 1.8 1.7 3zm-3.1 47.2a37.6 37.6 0 00-5 8.5l-2.2 4.6-2.2 4.3a213.8 213.8 0 00-3.6 8.2c-.5 1.3-1 2.6-1.3 4-.3.9-1.3 1.4-2.3 1.2-1-.3-1.5-1.3-1.2-2.2a83.4 83.4 0 015.7-15.1l3-6.3 1.4-3.2c1-2.2 2.4-4.2 3.8-6.2.4-.5.8-.8 1.4-1a2.3 2.3 0 011.7.2c.5.3.9.8 1 1.3a2 2 0 01-.2 1.7zm-13.3 58l-1 4.5a316.2 316.2 0 00-3 11.9v1.1a3 3 0 01-1 2 3 3 0 01-2 .9c-1.6 0-3-1.3-3-2.9.2-3 .7-6 1.4-9 .8-3.3 2-6.4 2.6-9.7v-2.2l-.2-1c-.1-.9-.1-1.6.3-2.4a3 3 0 012.7-1.5c.5 0 1 .2 1.5.4.6.4 1.3 1.1 1.4 1.8l.5 3c0 1 0 2-.2 3zm-25-81.9a85.7 85.7 0 01-5.4 12.7 102 102 0 00-4.7 15c-.4 2-2.6 3-4.5 2.5-.9-.2-1.6-.8-2.1-1.6-.5-.9-.6-1.7-.4-2.7.4-2.3 1-4.5 1.5-6.7a55 55 0 014-11.3l2.8-6c.5-1.3 1-2.6 1.3-4v-1.8c-.1-2.1 1.8-3.8 3.8-3.8 2.2 0 3.8 1.7 4 3.8 0 1.3 0 2.6-.3 4zm-7.5 36.4l-.2.5a240.4 240.4 0 01-8 16.7l-6.2 12.6-6.2 12.5c-.6 1-2 1.3-3 .8-.5-.3-.8-.7-1-1.3-.2-.5 0-1 .2-1.6l6.9-13.8 3.2-6.6 3-5.7a311.8 311.8 0 007.5-16.2 2.3 2.3 0 013.8 1v1.1zm-9.8 50.3l-.3 2.4c-.1 1.7-.4 3.4-.8 5l-1 5.2a105 105 0 00-1.2 7.7c0 1-.7 1.8-1.7 1.8s-1.9-.8-1.8-1.8a54 54 0 011.6-9.4l1-4 .8-4 .1-1.4.1-1.2.1-4c0-.9.7-1.6 1.6-1.6.8 0 1.5.7 1.5 1.6v3.7zm-16.5-89.4l-1.3 3.6-1.1 3-.6 1.7-.5 2.2-.7 3.4-.2 1.7c0 .4-.1.7-.4 1-.2.2-.6.4-1 .4-.7 0-1.4-.6-1.3-1.4v-1.3a28 28 0 011.3-5.2l.5-1.7.4-1.2.3-.7.8-2 1.4-3.2 1.4-3.3v.1l1.7-4.2.7-2 .9-3a1 1 0 011.1-.7c.5.1.8.6.7 1.1l-.6 2-.3 1.3-1 2.8-1.2 3-1 2.6zm-14 61.8a47.4 47.4 0 00-1.8 1.6 24.4 24.4 0 00-6.2 7.2 35 35 0 00-1.1 1.7l-1.7 3.1-1 2-1.1 2.5-1.4 3.4-.4 1.2-.8 2.3-1 3.5c-.6 2.3-1.3 4.6-1.8 7-.2.6-1 1-1.6.9-.7-.2-1-1-.9-1.6l1-3.5.8-3 .7-2.3.3-1.3 1.4-3.8.2-.5.4-1 1-2.1.4-1 1.2-2.3.5-1 1-1.8 1-2 .8-1.1a41.3 41.3 0 016.7-7.7 63.6 63.6 0 012.5-1.6c.3 0 .7.2.8.5.2.2.2.4.1.7zm-22.3-28.3c-.4-.1-.8-.4-1-.8-.3-.5-.3-1-.2-1.4 1.1-5.6 3-11 5.5-16.2.2-.4.8-.8 1.3-1a2.2 2.2 0 011.6.3c.5.3.9.7 1 1.2.2.6 0 1.1-.2 1.6l-1.8 3.9c-1.5 3.6-2.9 7.3-3.9 11.2-.3.9-1.3 1.5-2.3 1.2zm-14.8 29.8c-1.2 2-2.3 4-3.3 6.2l-2.7 6-2.9 7.8-2.4 8.7c-.2.8-1.2 1.3-2 1.1a1.6 1.6 0 01-1.2-2l1.3-5 .7-2.1.8-2.6 1-2.7.8-2 2.4-5.5c.6-1.4 1.2-2.8 2-4.2l1.1-2.3 1.6-3c.3-.5.9-.7 1.4-.7.3 0 .6 0 .8.2.8.4 1 1.3.6 2zM391 205c-.5-8.5-.9-17-1.6-25.6l-1-12.9-1.5-11.7c-.7-4.6-1.4-9.3-2.3-14a380.7 380.7 0 00-7.5-31.6v.7c.6 4 .6 8.2.1 12.3a73.6 73.6 0 01-7.2 24.6 74.1 74.1 0 01-19 23.6 49.7 49.7 0 01-43.3 8.8 71.2 71.2 0 01-21.1-8v.5c0 1.4-.2 2.7-.4 4.1a111 111 0 01-2.6 12.4l-3.2 11.2-1.8 5.6-1.8 5.7a4.6 4.6 0 01-5.6 3c-1-.2-1.7-.7-2.3-1.4-.9 0-1.8-.1-2.5-.6l-.3-.2c-4-2.7-7-6.4-9.8-10.1-2.6-3.4-5.3-6.9-7.6-10.6-2.3-3.5-4.6-7-6.6-10.5l-4.7-8.8a63.6 63.6 0 01-30.7 14.1 69 69 0 01-16.3 1.1 90 90 0 01-16-2.2 73 73 0 01-14.8-5.2 55.7 55.7 0 01-28.5-32.7 64.9 64.9 0 01-3.2-29c.6-5 1.4-10 2.9-15a62 62 0 0125.4-34.1 46.7 46.7 0 0113.3-5.6c2.4-.6 4.8-.9 7.3-.7l2.8.3a2.6 2.6 0 011.9.9l1.2-.7a51.7 51.7 0 0120.5-5.3 41 41 0 0110.6 1.6c5 1.5 9.8 3.7 14.1 6.5a68.7 68.7 0 0121.6 22 56.7 56.7 0 018 26.5 99.7 99.7 0 012-12c.4-1.5.7-3 1.2-4.3-.2-.3-.4-.6-.4-1-.2-.6-.2-1.3 0-2 1.3-3 2.9-6 4.5-8.9l.7-1.3 1.4-3 1.2-2.3L270 76l2.7-4.3.9-1.3 1.7-2.3a53.6 53.6 0 0110.1-10.6c1.6-1.1 3.2-2.2 5-3a12.4 12.4 0 014.3-1.1l3-.4c.4 0 .8.4.8.8 0 .5-.4.8-.8.8l-3.1.4c-1.1.1-2.1.3-3.1.7a27 27 0 00-5.2 3 44 44 0 00-6 5.6 55.3 55.3 0 0116-9 63.3 63.3 0 0125.2-4.5 59 59 0 0124.8 7.4 52.8 52.8 0 0117.7 17l2.3 3.8 1 2 1.5 2.7.5 1 2 4.3a158.6 158.6 0 00-3.4-9c-1-2.4-2-4.7-3.2-7-.6-1.2-1.1-2.4-1.8-3.5L361 66l-2-3.4-2.3-3.4-4.5-6.1-9.5-11.5-1.3-1.2-1.4-1.5-2.8-2.6-3-2.5-2.5-1.8-3-2.1c-1-.8-2-1.4-3.1-2.1a122.2 122.2 0 00-18.9-9.7l-3.7-1.5-4.2-1.4-4-1.2-4-1c-5-1.1-10-1.8-15-2.5-3.6-.3-7-.7-10.6-.8l-5.4-.3h-5.5c-3.7 0-7.4.1-11 .4l-5.6.4-4.7.5-4.8.9-4.1.8-4 .8-4 1-5.4 1.4-3.9 1.3-3.6 1.3-3.9 1.5-5 2.1-4.6 2.2c-3.8 1.8-7.4 3.7-11 5.7-3.6 1.9-7.2 3.8-10.7 5.9-3.7 2.2-7.4 4.4-10.9 6.9-1.8 1.2-3.7 2.4-5.4 3.7l-4.6 3.4-8.1 6.8c-2.5 2-4.8 4.2-7.1 6.5l-3.8 3.8-3.6 3.8-3.5 4-2.7 3.3-1.4 2-1.4 2.1-1.4 2.2-1.2 2-1.2 2.2-1 2-1.9 4-1.7 4.5-1.4 4.3a229.4 229.4 0 00-7.8 36.3l-1.7 11.8c-.4 3-.8 6.2-1 9.3l-.8 10-.2 7a60.4 60.4 0 019.6-7.1 43.2 43.2 0 0110-3.8 34.6 34.6 0 0116.1.6 47.3 47.3 0 0124.3 14.2l2.3 2.6c.9 1 1.9 2.1 2.7 3.3l1.4 2 .9 1.2 2 3.4.7 1.3 1.2 2.2 1.4 3.2.8 1.8.7 2.2c.4 1 .8 2.1 1 3.2l1 3.2.9 3.6.7 4 .2 1.5.4 2.4.2 1.7.1 2.3.2 1.8v4.9l-.2 2.7v1.1l-.5 4.3c-.4 3.3-1.1 6.5-2.1 9.7l-1.5 4.1-1.3 3-1.4 3.4-2 4-1.2 2.2a58.2 58.2 0 01-4.3 6.3l-2.9 3.6-2 2.3-2.3 2.7-3.4 3.2-2.4 2.2-2.4 2-3.4 2.8c-1 .9-2.2 1.6-3.3 2.4L134 297l-4 2.6-2.8 1.7-7 3.9-6.6 3.5-6 3.2-6.4 3.1c-2.4 1.1-4.7 2.3-7 3.2l-4.5 1.8-3.1 1.1c-1 .4-2.1.8-3.2 1l-4.5 1.5-7.2 1.9-3.3.7-3 .7-.8.1-.2.5c-.5.9-1 1.8-1.3 2.7a45.5 45.5 0 00-3 11.4c-1.5 8.2-3 16.4-4.7 24.5-.9 4-2 8.1-3.1 12l-1.3 4.3c4-4 8.2-8.2 12-12.5l6.8-7.2 3-3 4.8-4.5c.4-.4 1-.6 1.6-.6.5 0 1.1.2 1.5.6.9.8 1 2.3 0 3a253.7 253.7 0 00-6.3 6L69 370a496.1 496.1 0 01-14.4 15.4l1.7-.3 3-.5 6.2-7.3 6.1-7.6v-.1l6.3-7.7c.4-.4 1.1-.7 1.7-.7.6 0 1.2.3 1.7.7.4.4.7 1 .7 1.7 0 .6-.3 1.1-.7 1.6l-3 3.8c-1 1-1.8 2.1-2.6 3.2a2026.2 2026.2 0 01-9 11.4l4.3-.5a51 51 0 003.5-7.6c.3-.8.7-1.5 1.5-2a3.5 3.5 0 012.6-.3c.9.2 1.6.8 2 1.5.5.7.7 1.7.4 2.5l-2.2 5.2 4.9-.3 12.6-.7 12.6-.5 13-.7 14-.6c8.2-.4 16.5-.4 24.7-.5 9 0 18-.2 27 0l26.4.8c8.4.2 17 .1 25.4 0l12.6-.1 6.4-.3 6.5-.4a1178.2 1178.2 0 0036.1-4.3l10.5-1.8 5.3-1.1 5.2-1.4c1.7-.4 3.4-1 5-1.6l2-.8 1.5-.6c1.3-.6 2.7-1.2 4-2 .8-.3 1.5-.8 2.3-1.2l1.7-.9 2.2-1.4 1.7-1c1.2-1 2.4-1.8 3.6-2.6l3.6-2.8 3-2.6 1.7-1.7c2.5-2.6 4.8-5.2 7.1-8 .8-1 1.7-2.1 2.4-3.2l2.6-3.9 2.4-4 2-3.8a240.8 240.8 0 0011-24.7c1.2-3 2.2-6 3-9.1l1.5-5 1.2-4.6 1.1-5.2a1309.7 1309.7 0 001.4-9.6l.6-5.4.3-5.4.2-5.2c.2-8.2.2-16.4.2-24.6 0-8.2 0-16.4-.3-24.5" fill="#b17f4a"/>
  <path d="M71.8 369.2l-.1.2.1-.2m-.3.5l.1-.2-.1.2m153.2-120.4v-.1.1m0 0" fill="#ca9e67"/>
  <path d="M67 324.8l4-1 4-1.1c2.5-.7 5-1.6 7.4-2.4 2.2-.7 4.3-1.6 6.5-2.4l5.2-2.2 4.4-2.2 8.3-4.3a670.4 670.4 0 0020.5-12c1.9-1.1 3.7-2.4 5.6-3.7l4.6-3.7 3.2-2.8 1.9-1.7 2.2-2.2 3-3 3.7-4.4c2-2.7 4-5.3 5.8-8.2a58 58 0 004.4-8.7l2-5.2 1.1-3.5a39.5 39.5 0 001.8-7.8l.5-5.2v-2l.1-2.5V228.3l-.4-4.2-.7-4.4-.7-3.5-.5-2-.6-2.5-1-3.1-1.7-4.7-.6-1.4-.8-1.7-1-2-1-1.8-1-1.7-1.2-1.8-2.2-3-3-3.6-2.3-2.4c-1.6-1.6-3.3-3-5-4.4a42.8 42.8 0 00-19.3-7.5c-2.5-.3-5-.3-7.4 0a29.5 29.5 0 00-14.6 6.5A55.6 55.6 0 0089 193.8l-2.3 4.3-2.3 4.9-2.3 5.6-.7 2-1.3 3.8-.8 2.5-1.2 4.4-2 7.1-1.7 7.3-1.6 7.3-3 13.9-1.6 6.7-1.6 6.8-1.9 7-1.5 4.8-.7 2.4-2.7 7.8-1 2.7-1.8 4.7-2.9 6.6-1.2 3-1.6 3.2c.9-1 1.7-2.2 2.5-3.3l4-5.4 1-1.4L61 299l2.4-3.7 4.1-6.4 2.2-3.6 3.5-5.9c1-1.5 1.8-3.1 2.7-4.7l2.3-4.1a890.7 890.7 0 0011.3-20.5l5.6-9.9 3-5.3c1-1.8 1.9-3.5 3-5.2.4-.7 1-1 1.8-1 .3 0 .7 0 1 .2a2 2 0 01.8 2.8l-1 1.8-2.6 5-2.5 4.5-5.6 9.7L81.3 273l-5.5 9.1-4 6.5-2.4 3.6-3.6 5.5-1 1.4-2.4 3.3c-.9 1.2-1.7 2.5-2.7 3.7l-4.4 5.8-3.3 4.2-3.2 4-3.5 4.1-1.3 2.2 2.4-.8 3.2-1.5a2 2 0 01-1.5-2c0-.4.3-.9.6-1.3l1.6-1.8 1-1 2.7-2.7 5.5-5.3a628.6 628.6 0 009-9.1L71 298a338.5 338.5 0 0015.8-18l5.6-6.7 4.9-6.2 8.7-11.4c3.3-4.3 6.6-8.7 10.3-12.8.4-.5 1.1-.8 1.8-.8a3 3 0 012 .8 2.6 2.6 0 01.5 3.3l-2.6 3.5-10.8 13.7-5.3 6.6-5.3 6.3-10.5 12c-3.5 4-7 7.8-10.5 11.5l-5.7 5.8-6 5.9a568 568 0 01-6.5 6.1l-2.8 2.8c-.8.7-1.5 1.5-2.1 2.3l.3-.2 6.9-3.7 8-4.7c2.6-1.6 5.2-3.2 7.7-5 5.3-3.4 10.6-6.9 15.7-10.5l8.3-5.8 7.7-5.6 14-10.5c.1 0 .2 0 .3-.2 5.5-4 10.9-8.2 16.3-12.4 4.8-3.6 9.6-7.2 14.4-11a3.5 3.5 0 013.4-.8 3.3 3.3 0 011.5 5.6l-.7.6-21.6 16-8.2 6.1-7 5-15.3 10.6c-4.9 3.4-9.9 6.6-14.8 9.9-5 3.2-10 6.4-15.2 9.5l-8.1 4.7-5 2.9-3.5 1.7-2.9 1.5-1 .5-2 .9 1.6-.3 2-.3c1.6-.3 3.2-.5 4.7-.9l7-1.6" fill="#7d4e24"/>
  <path d="M305 116.5v-.1.1m-55.4 46.3c2.6.2 5.3 0 8 0 5.3-.1 10.6-.7 16-1h.2a54.1 54.1 0 01-16.6-33.7 65.5 65.5 0 01-4.3 21.1 54.3 54.3 0 01-7.2 13.4l3.9.2m54.7-49.2" fill="#ca9e67"/>
  <path d="M249.3 178.3A292.4 292.4 0 00258 191c1 1 1.8 2.2 2.7 3.2l3.7 4c1.6 1.8 3.4 3.4 5.3 5l1.4-3.7a260.7 260.7 0 005.7-16.3c1-3.4 1.9-7 2.4-10.5.2-1.3.3-2.5.2-3.8a8.8 8.8 0 00-.3-1l-.2-.1a60 60 0 00-9.3 0l-10.2.5c-5.3.3-10.7 0-16-.4a428.9 428.9 0 005.8 10.3" fill="#f9b233"/>
  <path d="M175.7 108.5a4 4 0 012.8-1.2c1 0 2.2.4 2.8 1.2l1.5 1.6 1 .5c1.8.6 3.7 1 5.6 1.3 2.8.3 5.6.4 8.4.5h4.9l11.4-.6c1-.1 2 .4 2.7 1 .7.7 1.1 1.7 1.1 2.6s-.4 2-1.1 2.6c-.8.8-1.6 1-2.7 1.1a190.7 190.7 0 01-22 .7c-3.2-.2-6.5-.5-9.6-1.5-1.5-.4-2.9-1-4.1-1.9l-1.6-1.2-1-1.3a4 4 0 01-1.2-2.7c0-1 .4-2 1.1-2.7zm-22.5-20.2a1335.8 1335.8 0 0111.2-13 50.8 50.8 0 0110.8-8.4h-2.9a41.7 41.7 0 00-17.6 7.7 60.4 60.4 0 00-17.4 22.2 66 66 0 00-5.2 25.7 64 64 0 002.1 16.7 62.7 62.7 0 0010.2 20.4 51.9 51.9 0 0020 14.7 78 78 0 0036 4.7c5.4-.7 10.5-2.1 15.5-4a52.6 52.6 0 0021.5-15.5 52.4 52.4 0 0010.4-25.6l.8-9.2a55.4 55.4 0 00-4-27.5A56.7 56.7 0 00215 68.7c-2.7-1-5.5-1.9-8.4-2.3-2.5-.3-5-.3-7.5 0-3.2.5-6.3 1.5-9.3 2.7a75 75 0 00-14.8 8.4 61 61 0 00-8.5 8.1l-4.4 5-6.8 8c-.6.8-2 1.2-3 1.2s-2-.4-2.8-1.2a4 4 0 01-.7-4.8 111 111 0 014.4-5.5m137 26.9a21.2 21.2 0 012.6-9 17.6 17.6 0 015.8-5.8c1.2-.7 2.4-1.2 3.7-1.6 1.1-1 2.7-1.8 4.3-1.8 2.4 0 4.7 1 6.6 2.3a17 17 0 014.7 4.8 24.4 24.4 0 013.2 19.5 19 19 0 01-3.3 5.9 17 17 0 01-8.4 5.6 12.8 12.8 0 01-7.7-.1c-1-.4-2.3-.9-3.2-1.5a18.6 18.6 0 01-4.8-4.8 21.5 21.5 0 01-3.4-10.3 17 17 0 01-.1-3.2zm4.8 52.3a59.4 59.4 0 0030.5 4.7c3.3-.5 6.6-1.3 9.8-2.6a49.5 49.5 0 0019.1-14.8 63.3 63.3 0 0013.8-31c.5-4.4.7-8.8.2-13a76 76 0 00-4.8-16.6c-.9-2-1.7-4.2-2.8-6.2l-2.4-4.7a48.1 48.1 0 00-13-15.5 47.5 47.5 0 00-26.5-8.7 49.5 49.5 0 00-20.3 4.4c-4.3 1.7-8.3 3.9-12 6.6a40.4 40.4 0 00-6.4 6c-3.5 4.4-6 9.4-8.9 14.3-1.4 2.4-2.8 4.8-4 7.2-.4.9-1.4 1.5-2.3 1.7a4 4 0 01-2 0 52 52 0 00-1.3 7.4l-.7 7a54.1 54.1 0 004 25.7 54.3 54.3 0 0015.9 20.3c4.3 3.1 9 5.7 14 7.8" fill="#fff"/>
  <path d="M395 215.3v51.1l-18.4 65.3-32.1 35-30.9 11.1-74 7.5-104.4-2.3S151.6 149.5 395 215.3" fill="#cbbba0"/>
  <path d="M280.8 159.7a56 56 0 01-16-20.3 54 54 0 01-3.9-25.7l.7-7a86.6 86.6 0 011.4-7.4 4 4 0 002 0c.9-.2 1.8-.9 2.3-1.7 1.2-2.5 2.6-4.8 4-7.2 2.8-4.9 5.4-9.9 8.9-14.4 1.9-2.2 4-4.2 6.4-6a60 60 0 0132.3-10.9 47 47 0 0126.5 8.7A48.5 48.5 0 01360.8 88a76 76 0 017.5 22.7 53.1 53.1 0 01-4.2 28 78.4 78.4 0 01-9.7 16c-2.9 3.5-6 6.7-9.5 9.5-3 2.1-6.2 4-9.6 5.4a45.9 45.9 0 01-23.6 2.5 72.4 72.4 0 01-30.9-12.4zM257.2 128l.5 3.6a54 54 0 0016.1 30.1h-.3c-5.3.4-10.6 1-16 1a100.5 100.5 0 01-11.8-.2 65.5 65.5 0 0011.6-34.5zm-123 11a60.7 60.7 0 01-1.3-25.9 58.1 58.1 0 0121.8-38.7 44.1 44.1 0 0117.6-7.5l3-.2a72 72 0 00-11 8.5 1448.2 1448.2 0 00-15.5 18.5c-.3.6-.5 1.3-.5 2 0 1 .4 2 1.2 2.8.7.8 1.8 1.2 2.9 1.2 1 0 2.3-.4 2.9-1.2l6.8-8 4.4-5c2.6-3 5.4-5.7 8.5-8.1a75 75 0 0114.8-8.4c3-1.2 6-2.2 9.3-2.7 2.5-.3 5-.3 7.5 0 2.9.4 5.7 1.2 8.4 2.3a61 61 0 0122.8 17.5c2.7 3.4 5 7 6.7 11a55.5 55.5 0 014.1 27.5l-.8 9.2a52.5 52.5 0 01-10.4 25.6 52.5 52.5 0 01-21.5 15.4c-5 2-10.1 3.3-15.4 4a77.8 77.8 0 01-36.2-4.7 51.9 51.9 0 01-30-35zm137 60.5l-1.4 3.6a59.5 59.5 0 01-9-9l-2.7-3.1a173.5 173.5 0 01-14.6-23.2c5.3.5 10.7.7 16 .5l10.2-.6a60.3 60.3 0 019.5 0v.2l.3 1c0 1.2 0 2.5-.2 3.8-.5 3.5-1.5 7-2.4 10.5a153.6 153.6 0 01-5.7 16.3zM391.1 254l-.2 5.2-.3 5.3c-.2 1.8-.3 3.7-.6 5.5l-.6 4.6-.8 5-1.1 5.2-1.2 4.6-1.4 5c-1 3-1.9 6.1-3 9.1l-3.8 9.6c-2.3 5-4.6 10.2-7.3 15.1l-2 3.8-2.4 4-2.6 3.9c-.7 1.1-1.6 2.2-2.4 3.2-2.3 2.7-4.6 5.4-7.1 8l-1.8 1.7-3 2.6c-1 1-2.3 1.8-3.5 2.8l-3.6 2.5-1.7 1c-.7.6-1.5 1-2.3 1.5l-1.6 1c-.8.3-1.6.8-2.3 1.2l-4 1.9-1.5.6-2 .8c-1.6.5-3.3 1.2-5 1.6l-5.2 1.4-5.3 1a246 246 0 01-20.8 3.3l-25.8 2.9-6.5.4-6.4.3-12.6.2c-8.5 0-17 .1-25.4-.1l-26.5-.8c-9-.2-18 0-27 0-8.2 0-16.4 0-24.6.5l-14 .6-13 .7-12.6.5-12.6.6-4.9.4A114 114 0 0081 377c.3-.8 0-1.8-.4-2.5a3.4 3.4 0 00-4.6-1.2c-.8.5-1.2 1.1-1.6 2A140.7 140.7 0 0171 383l-4.3.5a309.6 309.6 0 009-11.4l2.5-3.2 3-3.8c.5-.5.8-1 .8-1.6 0-.7-.3-1.3-.7-1.7-.5-.4-1-.7-1.7-.7-.6 0-1.3.2-1.7.7l-6.2 7.7.1-.2-.2.2-.1.3.1-.2-6.1 7.6-6.2 7.3-3 .5c-.6 0-1.2.1-1.7.3A2578.1 2578.1 0 0069 369.9a309.3 309.3 0 017.6-8l4.1-3.7c1-.8.9-2.3 0-3-.4-.5-1-.7-1.5-.7-.6 0-1.2.2-1.6.6l-4.9 4.5-2.9 3-6.7 7.2c-4 4.3-8 8.4-12.1 12.5l1.3-4.2c1.2-4 2.2-8 3-12 1.8-8.2 3.3-16.4 4.8-24.6a125.7 125.7 0 013-11.4 53.6 53.6 0 011.5-3.2l.7-.1 3-.7 3.4-.7c2.4-.6 4.8-1.2 7.2-2l4.5-1.3 3.2-1.1 3.1-1 4.4-1.9c2.4-1 4.7-2 7-3.2l6.5-3.1 6-3.2 6.6-3.5 7-4 2.9-1.6 4-2.6 2.3-1.7 3.3-2.4 3.4-2.8 2.3-2 2.5-2.2 3.3-3.2 2.4-2.7 2-2.3 2.9-3.6a78.1 78.1 0 004.3-6.3c.4-.8.9-1.5 1.2-2.3l2-3.9 1.4-3.3 1.2-3 1.5-4.2c1-3.2 1.8-6.4 2.2-9.7l.4-4.3v-1.2l.2-2.6v-6.7l-.2-2.3-.2-1.7-.4-2.4-.2-1.5-.8-4-.8-3.6-1-3.2a62.5 62.5 0 00-1.7-5.4l-.8-1.8c-.5-1-.9-2.2-1.5-3.2l-1-2.2-.8-1.3-2-3.4-.9-1.2-1.4-2c-.8-1.2-1.8-2.2-2.7-3.3l-2.3-2.6a45.3 45.3 0 00-40.4-14.9 43.2 43.2 0 00-19.6 10.8l.2-6.8.7-10 1-9.4 1.8-11.7a259.9 259.9 0 017.8-36.3l1.4-4.3 1.7-4.6 1.8-4 1.1-2 1.2-2.2 1.2-1.9 1.4-2.2 1.4-2 1.4-2 2.7-3.4c1-1.4 2.3-2.7 3.5-4l3.6-3.8 3.8-3.8c2.2-2.3 4.6-4.5 7-6.6l8.2-6.7 4.6-3.4c1.7-1.3 3.6-2.5 5.4-3.7a195 195 0 0110.9-7c3.5-2 7-4 10.6-5.8 3.7-2 7.3-3.9 11-5.7l4.7-2.2 5-2.1a1867.1 1867.1 0 017.5-2.8c1.3-.5 2.6-1 3.9-1.3l5.4-1.5 4-.9 4-.9 4-.8 4.9-.8 4.7-.5 5.5-.4c3.7-.3 7.4-.3 11-.4h5.6l5.4.2 10.5.9c5.1.6 10.2 1.4 15.2 2.6l3.9 1 4 1 4.2 1.5 3.7 1.5 6.7 2.9a82.9 82.9 0 0112.1 6.8l3.3 2a938.3 938.3 0 015.3 4l3 2.5L340 39l1.4 1.5 1.2 1.2a463.8 463.8 0 0114.1 17.6c.8 1 1.5 2.2 2.2 3.4.8 1 1.4 2.2 2 3.4l2 3.5 1.7 3.5c1.2 2.2 2.2 4.6 3.2 7l-.4-.8a308 308 0 013.7 9.8l-2-4.3c0-.4-.3-.7-.4-1l-1.4-2.7-1.1-2-2.3-3.8a51.7 51.7 0 00-29.8-22.1 58.7 58.7 0 00-15.6-2.4 57.8 57.8 0 00-22.3 4.6 64.3 64.3 0 00-16 9c1.9-2 3.8-3.9 6-5.6 1.6-1.1 3.3-2.2 5.2-3 1-.4 2-.6 3-.8l3.1-.3c.5 0 .8-.3.8-.8 0-.4-.3-.8-.8-.8l-2.9.4-1.5.2c-1 .2-2 .5-2.8.9a40.9 40.9 0 00-9.5 7c-2 2-4 4.2-5.6 6.5l-1.7 2.4-1 1.3L270 76c-.7 1-1.2 2.2-1.8 3.2a289.4 289.4 0 00-2.6 5.3l-.8 1.3c-1.5 3-3.1 5.9-4.5 9a3.7 3.7 0 00.5 2.8 83 83 0 00-2.3 9.9l-.7 4.8-.3 1.7a56.7 56.7 0 00-17.3-38.5 68.7 68.7 0 00-12.2-10c-4.3-2.8-9.1-5-14.1-6.5a41 41 0 00-16.5-1 51.7 51.7 0 00-15.8 5.3l-.2-.2c-.5-.4-1-.6-1.7-.6l-2.8-.3c-2.5-.2-5 .1-7.3.7a42.4 42.4 0 00-13.4 5.6 68.6 68.6 0 00-19.7 21 61.9 61.9 0 00-5.6 13.1c-1.5 4.9-2.3 10-3 15a62.6 62.6 0 006 35.6 52.4 52.4 0 0025.7 26.1 73 73 0 0015 5.2c5.1 1.2 10.5 2 15.9 2.2a69 69 0 0047-15.2c1.5 3 3 5.9 4.7 8.8 2 3.6 4.3 7 6.6 10.5 2.3 3.7 5 7.2 7.6 10.6a44.9 44.9 0 0010.1 10.3 4 4 0 002.5.6c.6.7 1.3 1.2 2.3 1.4 2.4.7 4.8-.7 5.5-3l2-5.7a203.2 203.2 0 004.9-16.8 111.4 111.4 0 003-16.5v-.6a81.1 81.1 0 0021 8.1 68 68 0 0019.4 1 53 53 0 0013.2-3.5 48.1 48.1 0 0015.5-10.2 71 71 0 0014.3-19.7 70.2 70.2 0 007.2-24.6c.5-4 .5-8.2 0-12.3l-.1-.7a283.3 283.3 0 014.5 17.6c1.1 4.7 2.2 9.4 3 14 .9 4.7 1.6 9.3 2.3 14l1.4 11.7 1.1 13c.7 8.4 1.1 17 1.5 25.5.5 8.1.4 16.3.4 24.5s0 16.4-.2 24.6zM55.3 327.3l-2 .3-1.6.2 2-.8 1-.5 2.9-1.5 3.4-1.7 5-2.9 8.2-4.7c5.1-3.1 10.2-6.3 15.2-9.6 5-3.2 10-6.4 14.8-9.8l15.2-10.5 7-5.1 8.3-6 21.6-16.2.7-.5c.4-.4.7-1 .9-1.5.2-.9 0-1.8-.4-2.6a3.5 3.5 0 00-3.9-1.5c-.6.1-1 .4-1.5.8l-14.4 11-16.3 12.4-.2.2-14 10.4-7.8 5.7-8.3 5.8c-5.1 3.6-10.4 7-15.7 10.6l-7.7 4.8-8 4.8-6.9 3.7-.3.1 2-2.2 3-2.8a566.8 566.8 0 0012.4-12l5.7-5.8L86 288.5l10.5-12.1 5.3-6.4 5.3-6.5a905 905 0 0013.4-17.3c.3-.4.4-.8.4-1.3 0-.7-.3-1.4-.8-2a3 3 0 00-2-.7c-.8 0-1.5.2-2 .8-3.6 4-6.9 8.4-10.2 12.8l-8.7 11.4-5 6.1-5.5 6.8A487.6 487.6 0 0171 298l-2.5 2.8-3 3-6 6-5.5 5.4-2.8 2.7-.9 1-1.6 1.8c-.4.4-.6.8-.6 1.4a2 2 0 001.5 2l-3.2 1.3-2.4.9 1.2-2.2 3.6-4.1 3.2-4 3.3-4.2 4.4-5.8c1-1.2 1.8-2.5 2.7-3.7l2.4-3.3 1-1.5 3.6-5.5 2.4-3.5 4-6.5 5.5-9L93 252.7l5.6-9.7 2.5-4.5 2.6-5 1-1.8a2 2 0 00-1.8-3c-.7 0-1.4.3-1.8 1-1.1 1.6-2 3.4-3 5.2l-3 5.3c-2 3.3-3.7 6.6-5.6 9.9a769 769 0 00-11.3 20.5l-2.3 4-2.7 4.8-3.5 5.9-2.2 3.6-4 6.4L61 299l-2.3 3.3-1 1.5-4 5.4-2.4 3.3 1.6-3.3 1.2-2.9 2.9-6.6 1.8-4.7 1-2.7 2.7-7.8.7-2.4 1.5-4.8 2-7 1.5-6.8 1.5-6.7 3-14c.6-2.4 1-4.8 1.7-7.2.5-2.5 1-5 1.7-7.3l2-7.1 1.2-4.4.8-2.5 1.3-3.7.7-2.2 2.3-5.5 2.3-5a57.2 57.2 0 016.1-10c2.8-3.3 6-6.3 9.4-9a29.6 29.6 0 0114.6-6.5c2.4-.3 5-.2 7.4 0a42.8 42.8 0 0124.3 12l2.2 2.3 3.1 3.6 2.2 3.1 1.1 1.8 1.1 1.7 1 1.8 1 2 .8 1.7.6 1.4 1.7 4.7 1 3.1.6 2.5.5 2 .7 3.5.7 4.3.4 4.3v6.8l-.1 2-.5 5.3a53.7 53.7 0 01-3 11.3l-2 5.2-1.3 3a58 58 0 01-3 5.7c-1.7 2.8-3.8 5.5-5.8 8.2-1.2 1.4-2.4 3-3.8 4.4l-2.9 3-2.2 2.1-2 1.8-3.1 2.8-4.6 3.6c-1.9 1.3-3.7 2.7-5.6 3.9a300.4 300.4 0 01-20.5 11.9c-2.8 1.5-5.5 3-8.3 4.3l-4.4 2.1-5.3 2.3c-2 .8-4.2 1.7-6.4 2.4l-7.4 2.4-4 1.1-4 1-7 1.6-4.7 1zm232.5 123.3l-.4.2-1 1-1.4 2.2-.7 1.3c0-1-.1-1.8-.3-2.7-.2-.8-.5-1.6-1-2.2a5.2 5.2 0 002.3-1.6c.4.6.8 1 1.4 1.3l1 .5zm-11 .6l1-1.8.6.4c-.6.4-1 1-1.5 1.4zm18.5 2.6c1.1 3 2.2 6 3 9.2v-.2c-.8-1.5-1.4-3-2.1-4.7l-1.4-3-1.1-2 1.6.7zm-96.1-1.6l-.3 1.2-1.1-3.3.3.1a4 4 0 002 0l-.1.3c-.4.5-.7 1-.8 1.7zm200.5-247.5c-.3-8.5-.6-17-1.2-25.6a259.8 259.8 0 00-6.8-50.2c-1.9-8-4-16-6.2-24-1.2-4-2.2-8-3.5-12a272.6 272.6 0 00-4-12.3c-1.5-4.2-3.3-8.2-5.2-12.3l-2.8-5.6-2.8-5-2-3-2-2.8-3.9-5.1c-2.6-3.3-5.2-6.5-8-9.7l-2-2.3-2.6-2.5-2.5-2.3-2.5-2-5.2-4-3-2.1-3-2A134 134 0 00307 8.4a92 92 0 00-12-3.8l-3.1-.7-4-.7-5.8-1-3.4-.5-3.6-.4a370.9 370.9 0 00-13.8-1l-6.5-.1h-2.5l-3.3.1-6 .3c-2.2.2-4.4.3-6.5.6l-7.7 1A187.7 187.7 0 00215.5 5L209 6.5l-6 2-6 2.4-6.7 2.9a371 371 0 00-22 11.5c-1.7 1-3.5 1.9-5.2 3l-5.3 3.3c-3.8 2.6-7.8 5.2-11.5 8l-5.3 4.1-5.2 4.3c-3.3 2.6-6.2 5.5-9.2 8.4l-2 2-2.2 2.2-4 4.4-4.7 5.4-2.4 3-1.6 2.4-1.5 2.2-2.2 3.5-1.2 2-1.4 2.8-2.9 6.4-2.2 6.1-2 6.6-1.6 6.4a266.6 266.6 0 00-4.7 24c-1.3 8.5-2.7 17-3.4 25.7-.4 4-.7 8.2-.9 12.3l-.2 6.5v3.2l.2 3.3a60 60 0 00-4.8 8.3l-2.1 4.5c-.5 1-1 2-1.3 3l-1.7 4.3-1 3c-.5 1-1 2.2-1.3 3.3l-2 6.7-1.8 7.1-1.1 4.3-.8 3-6.7 29.4-.7 3.2-1 3.5-1.2 4.2-.8 2.5-2.2 6.7-1.7 4.8-.8 2.3-3 7.6-3 6.7-1 2.2-2.2 4.6-3.5 6.4-3.6 6.3L35 327l-1.8 3-4 5.9c-1.2 1.9-2.6 3.8-4 5.6l-4 6a3.8 3.8 0 001.4 5.2 4 4 0 005.4-1.3c2.7-4.4 5.7-8.6 8.5-12.8l3.4-5.4.8-1.3 3.3-1 3.6-1.3 2.7-.3c2.3-.2 4.6-.6 6.8-1l2-.3-.4.8c-.6 1.3-1 2.6-1.4 4l-1 4.3c-.6 2.1-1 4.3-1.4 6.4l-2.3 11.3-3 12.6c-.4 2-1.1 4-1.8 6-.5 1.9-1.2 3.6-1.8 5.4a133.6 133.6 0 01-3.2 8c-.5 1-.8 2.6-.2 3.8-6.3 6-12.8 11.9-19.2 17.7l-11 9.8-5.6 5c-2 1.8-4 3.5-5.8 5.4a3.3 3.3 0 000 4.7c1.3 1.3 3.6 1.3 4.9 0 4.3-4.5 8.9-8.8 13.4-13.2l13.4-13 13.5-13.1.7-.8c1.3.1 2.6-.2 3.9-.5l1.8-.4-6.1 7a1021.3 1021.3 0 01-14 15.4l-7 7-3 3.1-3.7 3.9a3.6 3.6 0 000 5c.7.7 1.6 1.1 2.6 1.1a4 4 0 002.6-1c1.4-1.2 2.6-2.5 3.7-3.9l3-3.3 6.4-7.4 13.5-16.2 10.1-12.1 4.3-.6 1.7-.2-1.5 2.2-2 2.7-7.1 9.7-7.7 10.7c-2.7 3.7-5.2 7.4-7.8 11.2-6.4 9.3-12.4 18.8-18.5 28.2-1.4 2-.5 4.8 1.6 6 2 1.2 4.9.5 6.1-1.6l13.4-22c2-3.5 4.2-6.9 6.4-10.3l7.4-11c3.3-5 6.9-9.9 10.3-14.8l5-7 3-5 2.5-.2c4.2-.4 8.5-.5 12.7-.8l25.5-1c9-.4 18.1-.7 27.2-.8H168l14.6.1c4 0 8 .3 12 .5l9.7.3-.7 3.3-1.1 7.2-2.4 17c-.7 5-1.5 10.2-2.5 15.3-.8 4.5-1.6 9-2 13.5l-1.8 1.8c-1-.5-2.2-.5-3.3-.4-1.3.2-2.5 1-3.5 1.7a28.2 28.2 0 00-4.5 4.6l-3.5 4.5c-.5.5-1 1.1-1.3 1.7l-1.6 2.5c-1 1.4-1.8 2.9-2.6 4.4L172 467l-1 2.5a4 4 0 00.7 3.5c.5.7 1.1 1.2 2 1.5.8.2 1.9.1 2.6-.4a8 8 0 001.8-1.4l.9-1 1.3-1.7a355.8 355.8 0 008-9.8l5.3-6.3.5 2.4c.3 2.8.4 5.6.4 8.4v4.2c0 .7 0 1.5.3 2.1.1.6.4 1 .8 1.4.4.4 1 .7 1.6.9l1 .1c.9 0 1.6-.4 2.2-.9.5-.4.8-.9 1-1.4l1-2.4.6-3.3.6-4.5.3-2.6 2.5 7c1.1 3 2.4 6 3.7 8.9.4.8.9 1.7 1.5 2.5.6.9 1.4 1.7 2.4 2.1l.8.3c.6.2 1.2.2 1.8 0 .6 0 1.5-.5 2-1a6.3 6.3 0 001.5-2.7l.2-1.2.2-2a19.2 19.2 0 00-1.9-7.6c.6.4 1.2.8 1.8 1 1.2.7 2.4 1.4 3.6 1.8a9.5 9.5 0 007.3-.3c2.2-.9 3.8-2.7 4.5-4.8.4-1 .5-2.1.6-3.2 0-1.4-.4-2.7-1-3.8a32 32 0 00-4.1-4.9c-1.8-1.7-3.8-3-5.7-4.5l-8.7-6.2c-1.3-1-2.6-1.9-4-2.7-.3-.3-.7-.4-1.2-.4-1 0-1.9.5-2.3 1.3-.4.6-.5 1.3-.3 2 .2.6.6 1 1.2 1.5l.4.2 1 .8 5.6 4.2a4339.6 4339.6 0 007.8 6.1l3.7 3.8c.4.6.8 1.2 1 1.8l.1.2v.3l-.2 1-.5.8-.1.1-.7.4-.7.2h-.8l-1.6-.5-3.3-1.5-1.5-.9-2.2-1.3a86 86 0 01-5.7-4l-1.5-1a3 3 0 00-2.3-.2c-.6.2-1.1.5-1.5 1l-.7-1.4a6 6 0 00-2-2.1 3.8 3.8 0 00-2.5-.5c.4-.4.7-1 .8-1.4l1.2-8.5 1.4-8.7a14089.8 14089.8 0 002.4-19l1.7-13.9 1-6.4.8-3.3.1-.4 9.8.3 13 .2 12.5.1c8.4 0 16.8-.3 25.2-1.1l7.3-.7a277.6 277.6 0 01.2 22c0 2.4-.2 4.7-.4 7-.3 4-.9 8.2-1.4 12.3-.5 4.3-1 8.6-1.3 13l-4 7.4-5 8.4c-3.1 5.4-6.4 10.8-9.1 16.4l-.6 1.3-.5 1.4c-.3.6-.3 1.2-.3 1.9 0 1 .5 1.9 1.4 2.4 1 .5 2 .5 3 0l1.5-1.1 1.2-1.6 2.4-3.6 1.7-2.8 3.6-5.6a130.7 130.7 0 017.7-10.6l.9-1.1v.5c.2 1.2.1 2.4 0 3.5-.5 3.3-1.4 6.5-2.2 9.7a190 190 0 01-1 3.6l-.5 2c-.2.8-.5 1.6-.5 2.5a2.5 2.5 0 002.6 2.5c.8 0 1.3-.3 1.9-.7a5 5 0 001.4-2 49.6 49.6 0 002.3-6l1.7-4.7 1.3-3.9a129.5 129.5 0 012.3-5.6l.2-.4.1.1c.9 1.2 1.5 2.6 2.1 4 1.2 2.8 2.3 5.7 3.3 8.6l1.4 4.3 1.2 2.8a4 4 0 002.3 2.1c.5.2 1 .2 1.4.2.5 0 1-.1 1.4-.4l1-.7c.4-.3.7-1 1-1.6l.3-1.5v-3a33.2 33.2 0 00-2-9.4l.7.7a26.5 26.5 0 009.6 5.7l1.5.5a16.5 16.5 0 007.9.4 6 6 0 001.3-.4c.4 0 .8-.2 1-.5.7-.3 1.1-.7 1.4-1.3.4-.5.7-1.3.7-2l-.2-1.3-.5-1.2-.3-.4c-.3-.4-.6-.8-1-1-.5-.6-1.2-1-1.9-1.5-1-.8-2.3-1.4-3.5-2l-7.8-3.2-11.9-5.1-1.2-1.5c-1-1-2.5-1.3-3.8-.7l-4.4-2-1-.4c-.7-.2-1.5-.2-2.2 0-.4 0-.7.3-1 .4.5-7.9 1.3-15.8 2-23.7a216.1 216.1 0 000-34l10-1.3c4.2-.6 8.5-1.2 12.7-2l6.9-1.3c2.1-.5 4.2-1 6.4-1.7l2.4-.7 2.9-1 3.7-1.5 3.4-1.6 2.3-1.1 3.5-2c.9-.4 1.7-1 2.5-1.5l2.3-1.5 6.2-4.6 2-1.5 3.1-2.8c.8-.6 1.4-1.3 2-2l2-2 4.6-5.2a82 82 0 007.4-10.3l1.8-3.1 1.6-2.9 3-5.8 2.6-5.5 1.1-2.5 1.8-4 2.2-5.5 1.2-3 1-2.6c1.3-4 2.6-8 3.6-12l1.5-6.1 1.2-6.3a206.5 206.5 0 002.2-26.6c.2-8.1.2-16.2.2-24.4s0-16.4-.3-24.7" fill="#140300"/>
  <path d="M176.8 115.1a14.7 14.7 0 005.7 3.2c3 1 6.4 1.3 9.6 1.5a190.1 190.1 0 0022-.7c1-.1 2-.3 2.7-1 .7-.8 1.1-1.7 1.1-2.7a3.7 3.7 0 00-3.8-3.7l-11.4.6h-4.9c-2.8 0-5.6-.1-8.4-.4-1.9-.3-3.7-.7-5.6-1.3l-1-.6-1.5-1.6a4 4 0 00-2.8-1c-1 0-2 .3-2.8 1-.7.8-1.1 1.8-1.1 2.8 0 1 .4 1.9 1.1 2.7l1.1 1.2m127.5-1.5zm.7 3v-.2.1zm0 0zm-6.5 16.8c1 .7 2.1 1.1 3.2 1.6a13 13 0 007.7 0 17 17 0 008.4-5.6 19 19 0 003.3-5.8 24.6 24.6 0 00-3.2-19.5 17 17 0 00-4.7-4.8 12 12 0 00-6.6-2.3c-1.7 0-3.2.8-4.3 1.8a16.2 16.2 0 00-9.4 7.4 20.1 20.1 0 00-2.6 12.2l.6 3.6a21.5 21.5 0 005 9.3c.7.8 1.7 1.5 2.6 2.1M174 313.5c-.3-.2-.5-.2-.8-.2-.6 0-1.1.2-1.4.7l-1.6 3-1.2 2.4-2 4a198 198 0 00-2.3 5.6l-.8 2-1 2.7-.9 2.6-.6 2.2-1.3 5c-.2.8.3 1.7 1.2 2 .8.1 1.8-.4 2-1.2.7-3 1.5-5.8 2.4-8.7.8-2.6 1.8-5.1 2.9-7.7l2.7-6.1 3.2-6.2c.5-.8.2-1.7-.5-2.1m17.7-29a91.7 91.7 0 015.7-15c.3-.5.4-1 .2-1.6a2 2 0 00-1-1.2 2.2 2.2 0 00-1.6-.3c-.5.2-1 .5-1.3 1a72.4 72.4 0 00-5.5 16.2c-.1.5-.1 1 .1 1.4.3.4.7.7 1.1.8 1 .2 2-.3 2.3-1.3m32.9-35v-.1m4.2-5.5l.4-1.3.6-2a1 1 0 00-1-1.1 1 1 0 00-.8.6l-.9 3-.7 2-1.7 4.3v-.2l-1.4 3.3-1.4 3.4-.8 1.9-.3.7-.4 1.2-.6 1.7a29.2 29.2 0 00-1.1 5.2l-.2 1.3c0 .8.7 1.4 1.4 1.4.4 0 .8-.2 1-.4.3-.3.4-.6.4-1l.2-1.8.7-3.4.5-2 .6-1.9 1-3 1.4-3.5 1-2.6 1.2-3 1-2.8m26.9 3.3c-2 0-4 1.7-3.9 3.8v1.9c-.2 1.3-.7 2.6-1.2 4l-2.8 6a55 55 0 00-2.4 5.7c-.5 1.8-1.2 3.7-1.6 5.5l-1.5 6.7c-.2 1-.1 1.9.4 2.7.4.8 1.2 1.4 2.1 1.6 1.9.5 4-.5 4.5-2.4a96.3 96.3 0 018.9-24l1.2-3.7c.3-1.4.3-2.7.2-4 0-2-1.7-3.8-3.9-3.8M251 289a2.3 2.3 0 00-2.8.3l-.5 1a364.4 364.4 0 01-7 15.1l-3 5.8-3.3 6.6-6.8 13.8c-.2.5-.4 1-.2 1.6.1.5.5 1 1 1.3 1 .5 2.4.2 3-.8 2-4.2 4-8.3 6.2-12.5 2-4.2 4.1-8.5 6.3-12.7a485.5 485.5 0 007.8-16.6l.3-.5v-1.2c-.2-.5-.6-1-1-1.3M210.8 313h-.5a63.6 63.6 0 00-3.9 3.2 36.1 36.1 0 00-4.8 6l-.7 1.2a1217.2 1217.2 0 01-2 3.7c-.3.3-.4.7-.6 1l-1.2 2.4-.4 1-1 2-.4 1-.2.6-1.4 3.8-.3 1.3a565.5 565.5 0 00-1.6 5.2l-.9 3.6c-.2.6.2 1.3.9 1.5.6.2 1.4-.2 1.6-.9l1.8-7 1-3.4.8-2.3.4-1.3 1.4-3.3 1.2-2.6.9-1.9 1.7-3.1a35.2 35.2 0 017.3-9 47 47 0 011.8-1.6v-.7a1 1 0 00-1-.5m30 23.5c-.9 0-1.6.7-1.6 1.5v4l-.2 1.3-.1 1.4-.8 4-1 4a54 54 0 00-1.6 9.4c0 1 .8 1.7 1.8 1.7s1.7-.8 1.7-1.7a46.6 46.6 0 011.1-7.7l1.1-5.2c.4-1.7.7-3.3.8-5l.3-2.4v-3.8c0-.8-.7-1.5-1.5-1.5m42.1-7.4a3.1 3.1 0 00-4.2 1.1c-.4.8-.5 1.5-.3 2.3l.2 1.2v2c-.6 3.4-1.8 6.6-2.6 9.8-.7 3-1.3 6-1.4 9 0 1.6 1.4 3 3 3a3 3 0 002-1 3 3 0 001-2 39.8 39.8 0 011.8-8.7l1.1-4.3c.5-1.5.8-3 1-4.6l.3-3c0-1-.3-2-.5-3-.1-.7-.8-1.4-1.4-1.7m33.5-5.6a4.4 4.4 0 00-3.6-2c-.8 0-1.5.1-2.2.5-1.9 1-2.8 3.8-1.5 5.6l1.1 1.8.2.7c.1 1.8-.1 3.5-.3 5.3l-1 7c0 .7.2 1.4.6 2a4 4 0 002.4 1.8c2 .5 4.4-.7 4.9-2.7l1.4-6.7c.3-1.8.5-3.5.6-5.3a12.7 12.7 0 00-2.5-8M352.8 305.7c-.3-.7-.7-1.4-1.2-2a4.7 4.7 0 00-6.6 0c-.8.8-1.5 2.1-1.4 3.2a55.8 55.8 0 01.3 6.7c-.5 2.5-1.3 5-2 7.5l-1.5 6c-.2 1.2-.2 2.2.5 3.3.5 1 1.5 1.7 2.6 2 2.3.6 4.7-.8 5.3-3l2.3-6.8a32.3 32.3 0 002.2-11c0-1.5-.2-3.1-.4-4.7l-.1-1.2m24.1-53.2a2.4 2.4 0 00-1.2 0c-.7 0-1.2.5-1.6 1l-.5 1.4-.5 1.5a2 2 0 00.2 1.6l-.7 1.8-1 3-1 3-1.6 3.8-2.4 6c-1 2.4-2 4.8-2.7 7.3-.3 1 .4 2.3 1.5 2.6 1.2.3 2.4-.4 2.7-1.5.7-2.5 1.6-5 2.6-7.3l2.4-6a308.9 308.9 0 003.7-10c.6-1.8 1.3-3.6 1.6-5.4v-.8c.2-.5-.2-1.1-.6-1.5l-1-.5m-4.3-30.8c.4-.4.7-1 .7-1.6 0-.6-.3-1.1-.7-1.6-.4-.4-1-.6-1.6-.6-.7 0-1.1.3-1.6.6-2.1 1.8-4.3 3.5-6 5.6-1 1-1.8 2-2.6 3l-2.2 2.8-1.6 2.3c-2.5 3.7-5 7.4-7.4 11.3l-4.8 7.7c-.5.9-.2 2 .7 2.5.9.5 2 .2 2.6-.7a950.3 950.3 0 0111-16.4l1.3-2 .7-1 2.5-3 .2-.4 2.6-3c1.9-2 4-3.8 6.2-5.5M336.8 227.9l-.5-.2c-.4 0-.8.2-1 .6l-1.4 2-.8 1.3-1.9 3.2-2 3.5a6085.5 6085.5 0 00-3.3 6.6l-1.8 3.4a1162 1162 0 01-6 12.6l-3.1 6c-.3.6-.2 1.3.4 1.7.6.3 1.4.1 1.7-.5 2.4-4.6 4.6-9.3 6.9-14l2.9-6.1 1.9-3.9 1.8-3.6 1.2-2.1 1.6-2.9 1.7-3 .9-1.3 1.2-1.8c.4-.5.1-1.2-.4-1.5m-39.8 48a2.3 2.3 0 00-1.7-.2c-.6.1-1 .5-1.4 1-1.4 2-2.8 4-3.8 6.1l-1.5 3.2-2.9 6.3a93 93 0 00-5.7 15.1c-.3 1 .3 2 1.2 2.2 1 .3 2-.3 2.3-1.2a71.3 71.3 0 015-12.2l2-4.3 2.2-4.5 1.3-2.7c1-2 2.4-4 3.8-5.9a2 2 0 00.2-1.6c-.1-.6-.5-1-1-1.3m36.8-2.3a3.7 3.7 0 00-2.8-.3c-.9.2-1.6.8-2.1 1.5-.5.9-.5 1.8-.4 2.7a116 116 0 01.6 5c0 1 0 1.9-.2 2.8-.8 5.5-2.7 11-3 16.5-.1 1.4 1 2.7 2.3 3 .8.2 1.7.1 2.4-.3s1.4-1.1 1.5-1.9c.5-3 1.6-6 2.3-8.9l1-4.5c.5-2.2.8-4.5.8-6.7 0-2.3-.4-4.6-.8-6.8-.2-.9-1-1.7-1.6-2m-34.6-45c-.8-.2-1.5-.4-2.3-.4a5 5 0 00-2.7.9c-1.5 1-2.6 2.3-3.5 3.8-.9 1.5-1.5 3.1-2.1 4.7l-.9 2.3-1.2 3.5a301.2 301.2 0 00-4.2 19.1c0 .7 0 1.3.3 2 .3.6 1 1 1.6 1.2.7.2 1.4 0 2-.3.6-.3 1.1-.9 1.2-1.5l1.3-6.8 1.1-5.6 1-3.9c.1-1 .5-2 .8-2.9.7-2.4 1.6-4.8 2.6-7.2.5-1.2 1-2.3 1.7-3.3l1.1-1 .8.1c1.3.3 2.7-.4 3.1-1.7.4-1.3-.4-2.7-1.7-3m-93.6 201l-.1.7v-.7m.6-4.1v1h-.1l.1-1M71.6 369.5" fill="#140300"/>
</svg>
